<svg id="Layer_1" enable-background="new 0 0 100 100" viewBox="0 0 100 100" xmlns="http://www.w3.org/2000/svg"><g fill="#ff8818"><path d="m80.5916748 56.4356995-.0000076.0000038c-1.6023254 1.2682152-3.9223785 1.033802-5.2386246-.5292969l-11.1319656-13.2196083.0000076 50.0380249c0 2.5714951-2.1038857 4.8317184-4.6747475 4.7741013-1.2164917-.0272675-2.319828-.5357513-3.1297188-1.3376999-.8245354-.8327026-1.3388481-1.9755859-1.3388481-3.2328186v-23.3260727c0-2.8043747-2.2733955-5.0777664-5.0777626-5.0777664h-.0000114c-2.8043709 0-5.0777626 2.2733917-5.0777626 5.0777664l.0000076 23.1224289c.0000038 2.5715256-2.1038971 4.8317642-4.6747742 4.7741623-1.2165031-.0272675-2.3198471-.5357513-3.1297379-1.3376999-.8244858-.8327026-1.3387985-1.9755859-1.3387985-3.2328186v-50.2416077l-11.1319694 13.2196083c-1.3162537 1.5630989-3.6363029 1.7975121-5.2386265.5292969l-.0000057-.0000038c-1.6036282-1.2692451-1.9073257-3.5835648-.6854706-5.2235909l13.8106689-18.53722c2.0421638-2.7410736 5.2593765-4.3561039 8.6775513-4.3561039h17.5778427c3.4181747 0 6.6353874 1.6150303 8.6775475 4.3561039l13.8106766 18.53722c1.2218551 1.6400261.9181518 3.9543457-.6854706 5.2235909z"/><path d="m50.2988586 27.2133141h-.5977173c-6.0231667 0-10.9059067-4.8827419-10.9059067-10.9059067v-2.9015007c.0000001-6.0231662 4.8827401-10.9059067 10.9059068-10.9059067h.5977173c6.0231667 0 10.9059067 4.8827405 10.9059067 10.9059067v2.9015007c-.0000001 6.0231647-4.8827401 10.9059067-10.9059068 10.9059067z"/></g></svg>