<svg id="Capa_1" enable-background="new 0 0 497 497" height="512" viewBox="0 0 497 497" width="512" xmlns="http://www.w3.org/2000/svg"><g><path d="m437 497h-377c-33.137 0-60-26.863-60-60v-377c0-33.137 26.863-60 60-60h377c33.137 0 60 26.863 60 60v377c0 33.137-26.863 60-60 60z" fill="#b7c5c8"/><path d="m30 437v-377c0-16.569 13.431-30 30-30h377c16.569 0 30 13.431 30 30v377c0 16.569-13.431 30-30 30h-377c-16.569 0-30-13.431-30-30z" fill="#fff"/><path d="m407 437-158.5-188.5 158.5-188.5h30v377z" fill="#276ed9"/><path d="m60 60h347v377h-347z" fill="#4388f0"/><path d="m377 120c0-16.569-13.432-30-30-30h-30v257l30 60h30z" fill="#d9f9ff"/><path d="m317 90h-167c-16.569 0-30 13.431-30 30v287h60v-30h137v30h30v-287c0-16.569-13.432-30-30-30z" fill="#fff"/><g fill="#4388f0"><path d="m180 120h137v30h-137z"/><path d="m150 180h197v107h-197z"/><circle cx="165" cy="332" r="15"/><circle cx="332" cy="332" r="15"/></g></g></svg>